<svg width="32" height="32" viewBox="0 0 32 32" fill="none" xmlns="http://www.w3.org/2000/svg">
<path d="M6.22233 25.7777H7.83333L22.6667 10.9667L21.0557 9.35566L6.22233 24.1667V25.7777ZM4 28V23.2667L22.6443 4.65566C22.8519 4.45566 23.0908 4.30011 23.361 4.189C23.6314 4.07789 23.9148 4.02233 24.211 4.02233C24.4926 4.02233 24.7703 4.07789 25.0443 4.189C25.3186 4.30011 25.563 4.45933 25.7777 4.66667L27.3667 6.26667C27.5889 6.48155 27.75 6.726 27.85 7C27.95 7.274 28 7.54811 28 7.82233C28 8.10366 27.9463 8.38322 27.839 8.661C27.7314 8.93878 27.574 9.18144 27.3667 9.389L8.73333 28H4ZM21.8557 10.1667L21.0557 9.35566L22.6667 10.9667L21.8557 10.1667Z" fill="#1D4ED8"/>
</svg>
