<svg width="24" height="24" viewBox="0 0 24 24" fill="none" xmlns="http://www.w3.org/2000/svg">
<path d="M13.6667 13.3332C12.8334 13.3332 12.1251 13.0416 11.5418 12.4582C10.9584 11.8749 10.6668 11.1666 10.6668 10.3333C10.6668 9.49992 10.9584 8.79158 11.5418 8.20825C12.1251 7.62492 12.8334 7.33325 13.6667 7.33325C14.5001 7.33325 15.2084 7.62492 15.7917 8.20825C16.3751 8.79158 16.6667 9.49992 16.6667 10.3333C16.6667 11.1666 16.3751 11.8749 15.7917 12.4582C15.2084 13.0416 14.5001 13.3332 13.6667 13.3332ZM6 16.6668C5.54167 16.6668 5.14933 16.5035 4.823 16.177C4.4965 15.8507 4.33325 15.4583 4.33325 15V5.66675C4.33325 5.20842 4.4965 4.816 4.823 4.4895C5.14933 4.16317 5.54167 4 6 4H21.3333C21.7916 4 22.184 4.16317 22.5105 4.4895C22.8368 4.816 23 5.20842 23 5.66675V15C23 15.4583 22.8368 15.8507 22.5105 16.177C22.184 16.5035 21.7916 16.6668 21.3333 16.6668H6ZM8.33325 15H19C19 14.35 19.2264 13.7986 19.6792 13.3457C20.1319 12.8931 20.6833 12.6668 21.3333 12.6668V8C20.6833 8 20.1319 7.77358 19.6792 7.32075C19.2264 6.86808 19 6.31675 19 5.66675H8.33325C8.33325 6.31675 8.10692 6.86808 7.65425 7.32075C7.20142 7.77358 6.65 8 6 8V12.6668C6.65 12.6668 7.20142 12.8931 7.65425 13.3457C8.10692 13.7986 8.33325 14.35 8.33325 15ZM20 20H2.66675C2.20842 20 1.816 19.8368 1.4895 19.5105C1.16317 19.184 1 18.7916 1 18.3333V7H2.66675V18.3333H20V20Z" fill="#F8FAFC"/>
</svg>
